<svg xmlns="http://www.w3.org/2000/svg" viewBox="0 0 64 64" role="img" aria-label="Serviqo">
  <rect width="64" height="64" rx="18" fill="#F2A531"/>
  <path
    d="M19 16c-2.761 0-5 2.239-5 5s2.239 5 5 5h2.968l1.95 7.797.063.27 2.456 9.824-1.61 1.61C22.14 48.188 23.94 53 28.14 53H48c2.761 0 5-2.239 5-5s-2.239-5-5-5H30.21l1.792-1.791H45c1.894 0 3.626-1.07 4.472-2.764l7-14A5 5 0 0 0 52 17H29.728l-.75-2.998A5 5 0 0 0 24.129 10H19a6 6 0 0 0 0 12h1.406l2.252 9.01-.006-.024A4.973 4.973 0 0 0 22.5 31l-1.358-5.43-.01-.041L20.828 24H19a3 3 0 0 1 0-6h5.128a2 2 0 0 1 1.94 1.515L27.995 27H52l-7 14H31.174l-3.69 3.69A5 5 0 0 0 31.021 53H48a3 3 0 0 1 0 6H28.14c-5.173 0-7.972-6.229-4.839-9.362L25.2 47.74l-3.236-12.947A4.989 4.989 0 0 0 21.75 34H19a2 2 0 1 1 0-4h2.828l-.015-.06-.305-1.221L19 16Z"
    fill="#0C0C0E"
  />
</svg>
